<svg width="16" height="16" viewBox="0 0 16 16" fill="none" xmlns="http://www.w3.org/2000/svg">
<mask id="mask0_149_1372" style="mask-type:alpha" maskUnits="userSpaceOnUse" x="0" y="0" width="16" height="16">
<rect width="16" height="16" fill="#D9D9D9"/>
</mask>
<g mask="url(#mask0_149_1372)">
<path d="M6.62153 10.7545L11.0215 7.9545L6.62153 5.1545V10.7545ZM8.22153 14.3545C7.34367 14.3545 6.51593 14.1878 5.73833 13.8545C4.96073 13.5212 4.2802 13.0628 3.69673 12.4793C3.11327 11.8958 2.65487 11.2153 2.32153 10.4377C1.9882 9.6601 1.82153 8.83237 1.82153 7.9545C1.82153 7.06544 1.9882 6.23477 2.32153 5.4625C2.65487 4.69077 3.11327 4.01317 3.69673 3.4297C4.2802 2.84624 4.96073 2.38784 5.73833 2.0545C6.51593 1.72117 7.34367 1.5545 8.22153 1.5545C9.1106 1.5545 9.94127 1.72117 10.7135 2.0545C11.4853 2.38784 12.1629 2.84624 12.7463 3.4297C13.3298 4.01317 13.7882 4.69077 14.1215 5.4625C14.4549 6.23477 14.6215 7.06544 14.6215 7.9545C14.6215 8.83237 14.4549 9.6601 14.1215 10.4377C13.7882 11.2153 13.3298 11.8958 12.7463 12.4793C12.1629 13.0628 11.4853 13.5212 10.7135 13.8545C9.94127 14.1878 9.1106 14.3545 8.22153 14.3545Z" fill="#0D60E9"/>
</g>
</svg>
