<svg width="16" height="16" viewBox="0 0 16 16" fill="none" xmlns="http://www.w3.org/2000/svg">
<mask id="mask0_149_1386" style="mask-type:alpha" maskUnits="userSpaceOnUse" x="0" y="0" width="16" height="16">
<rect width="16" height="16" fill="#D9D9D9"/>
</mask>
<g mask="url(#mask0_149_1386)">
<path d="M8.60003 15.1168V13.9C9.05549 13.8333 9.49442 13.7 9.91682 13.5C10.3392 13.3 10.728 13.0277 11.0832 12.6832L11.9336 13.5336C11.467 14.0003 10.9475 14.364 10.3752 14.6248C9.80296 14.8861 9.21123 15.0501 8.60003 15.1168ZM7.40002 15.1168C5.96642 14.9611 4.77469 14.3581 3.82482 13.308C2.87496 12.2584 2.40002 11.0059 2.40002 9.55041C2.40002 8.77227 2.54722 8.04427 2.84162 7.36641C3.13602 6.68907 3.53602 6.09761 4.04162 5.59201C4.54722 5.08641 5.13896 4.68907 5.81682 4.40001C6.49469 4.11094 7.22242 3.96641 8.00002 3.96641H8.64963L7.15042 2.48321L8.00002 1.63361L10.8336 4.46641L8.00002 7.28321L7.15042 6.43361L8.43362 5.16641H7.98322C6.76136 5.16641 5.72536 5.59147 4.87522 6.44161C4.02509 7.29174 3.60002 8.32801 3.60002 9.55041C3.60002 10.6725 3.95549 11.6389 4.66642 12.4496C5.37789 13.2608 6.28909 13.7443 7.40002 13.9V15.1168ZM12.7 12.6L11.8 11.7168C12.0112 11.3499 12.1611 10.9664 12.2496 10.5664C12.3387 10.1664 12.3832 9.76107 12.3832 9.35041H13.6C13.6 9.91681 13.5307 10.4749 13.392 11.0248C13.2528 11.5747 13.0222 12.0997 12.7 12.6ZM13.4168 8.15041H12.1504C12.0502 7.83894 11.9168 7.53867 11.7504 7.24961C11.5835 6.96107 11.3723 6.68907 11.1168 6.43361L11.9664 5.60001C12.3334 5.96694 12.6363 6.36694 12.8752 6.80001C13.1142 7.23307 13.2947 7.68321 13.4168 8.15041Z" fill="#1045FF"/>
</g>
</svg>
