<svg width="16" height="16" viewBox="0 0 16 16" fill="none" xmlns="http://www.w3.org/2000/svg">
<mask id="mask0_149_1427" style="mask-type:alpha" maskUnits="userSpaceOnUse" x="0" y="0" width="16" height="16">
<rect width="16" height="16" fill="#D9D9D9"/>
</mask>
<g mask="url(#mask0_149_1427)">
<path d="M7.99999 14.6664C7.07785 14.6664 6.21119 14.4915 5.39999 14.1416C4.58879 13.7918 3.88319 13.3168 3.28319 12.7168C2.68319 12.1168 2.20825 11.4112 1.85839 10.6C1.50852 9.78882 1.33359 8.92215 1.33359 8.00002C1.33359 7.07789 1.50852 6.21122 1.85839 5.40002C2.20825 4.58882 2.68319 3.88322 3.28319 3.28322C3.88319 2.68322 4.58879 2.20828 5.39999 1.85842C6.21119 1.50855 7.07785 1.33362 7.99999 1.33362C8.92212 1.33362 9.78879 1.50855 10.6 1.85842C11.4112 2.20828 12.1168 2.68322 12.7168 3.28322C13.3168 3.88322 13.7917 4.58882 14.1416 5.40002C14.4915 6.21122 14.6664 7.07789 14.6664 8.00002C14.6664 8.92215 14.4915 9.78882 14.1416 10.6C13.7917 11.4112 13.3168 12.1168 12.7168 12.7168C12.1168 13.3168 11.4112 13.7918 10.6 14.1416C9.78879 14.4915 8.92212 14.6664 7.99999 14.6664ZM7.99999 13.2664C9.46665 13.2664 10.7112 12.7555 11.7336 11.7336C12.7555 10.7112 13.2664 9.46669 13.2664 8.00002C13.2664 6.53335 12.7555 5.28882 11.7336 4.26642C10.7112 3.24455 9.46665 2.73362 7.99999 2.73362C6.53332 2.73362 5.28879 3.24455 4.26639 4.26642C3.24452 5.28882 2.73359 6.53335 2.73359 8.00002C2.73359 9.46669 3.24452 10.7112 4.26639 11.7336C5.28879 12.7555 6.53332 13.2664 7.99999 13.2664Z" fill="#1045FF"/>
</g>
</svg>
